<svg width="32" height="32" viewBox="0 0 32 32" fill="none" xmlns="http://www.w3.org/2000/svg">
<g clip-path="url(#clip0_220_202)">
<circle cx="16" cy="16" r="16" fill="white"/>
<path d="M23.5833 14.9167H22.695L20.8533 9.84669C20.7009 9.42863 20.4239 9.06739 20.0597 8.81169C19.6955 8.55598 19.2617 8.41812 18.8167 8.41669H17.0833C16.4875 8.41669 16 8.90419 16 9.50002C16 10.0959 16.4875 10.5834 17.0833 10.5834H18.8167L20.3983 14.9167H15.1875L14.7975 13.8334H14.895C15.4908 13.8334 15.9783 13.3459 15.9783 12.75C15.9783 12.1542 15.4908 11.6667 14.895 11.6667H11.6667C11.0708 11.6667 10.5833 12.1542 10.5833 12.75C10.5833 13.3459 11.0708 13.8334 11.6667 13.8334H12.4792L14.4508 19.25H13.725C13.2483 16.8342 11.2225 15.0467 8.6875 14.9275C5.65417 14.7759 3 17.3 3 20.3334C3 23.3667 5.38333 25.75 8.41667 25.75C11.0817 25.75 13.2375 23.9192 13.725 21.4167H18.275C18.7517 23.8325 20.7775 25.62 23.3125 25.7392C26.3458 25.88 29 23.3667 29 20.3225C29 17.3 26.6167 14.9167 23.5833 14.9167ZM9.5 21.4167H11.4717C11.0167 22.7492 9.73833 23.67 8.2 23.5725C6.58583 23.475 5.2425 22.11 5.16667 20.485C5.09083 18.5892 6.5425 17.0834 8.41667 17.0834C9.8575 17.0834 11.0383 17.9825 11.4717 19.25H9.5C8.90417 19.25 8.41667 19.7375 8.41667 20.3334C8.41667 20.9292 8.90417 21.4167 9.5 21.4167ZM18.275 19.25H16.7583L15.9675 17.0834H19.25C18.7733 17.7117 18.4267 18.4375 18.275 19.25ZM23.4533 23.5834C21.785 23.5184 20.3767 22.0992 20.3333 20.42C20.3117 19.38 20.7558 18.47 21.4708 17.8634L22.1425 19.705C22.3483 20.2684 22.9658 20.5609 23.5292 20.355C24.0925 20.1492 24.385 19.5317 24.1792 18.9684L23.4967 17.0942L23.5075 17.0834C23.9418 17.0685 24.3747 17.1419 24.7799 17.299C25.1851 17.4561 25.5543 17.6937 25.8651 17.9975C26.1759 18.3012 26.422 18.6648 26.5884 19.0663C26.7548 19.4677 26.8381 19.8988 26.8333 20.3334C26.8333 22.1967 25.3383 23.6484 23.4533 23.5834Z" fill="url(#paint0_linear_220_202)"/>
</g>
<defs>
<linearGradient id="paint0_linear_220_202" x1="16" y1="8.41669" x2="16" y2="25.75" gradientUnits="userSpaceOnUse">
<stop stop-color="#F1B101"/>
<stop offset="1" stop-color="#E68209"/>
</linearGradient>
<clipPath id="clip0_220_202">
<rect width="32" height="32" fill="white"/>
</clipPath>
</defs>
</svg>
